<mxfile host="app.diagrams.net" agent="Mozilla/5.0 (Windows NT 10.0; Win64; x64) AppleWebKit/537.36 (KHTML, like Gecko) Chrome/129.0.0.0 Safari/537.36" version="24.7.17">
  <diagram name="Page-1" id="UHuakYORrLRIdfT1yyAi">
    <mxGraphModel dx="1444" dy="895" grid="1" gridSize="10" guides="1" tooltips="1" connect="1" arrows="1" fold="1" page="1" pageScale="1" pageWidth="827" pageHeight="1169" math="0" shadow="0">
      <root>
        <mxCell id="0" />
        <mxCell id="1" parent="0" />
        <mxCell id="DjC6tdoRYYn5e1TVaNs1-1" value="Start" style="ellipse;whiteSpace=wrap;html=1;" vertex="1" parent="1">
          <mxGeometry x="440" y="230" width="120" height="80" as="geometry" />
        </mxCell>
        <mxCell id="DjC6tdoRYYn5e1TVaNs1-2" value="" style="endArrow=classic;html=1;rounded=0;" edge="1" parent="1">
          <mxGeometry width="50" height="50" relative="1" as="geometry">
            <mxPoint x="499" y="310" as="sourcePoint" />
            <mxPoint x="499.33" y="410" as="targetPoint" />
          </mxGeometry>
        </mxCell>
        <mxCell id="DjC6tdoRYYn5e1TVaNs1-3" value="&lt;div&gt;Output :&lt;/div&gt;&lt;div&gt;&lt;div&gt;Opsi&lt;/div&gt;&lt;div&gt;1. Daftar Akun&lt;/div&gt;&lt;div&gt;2. Login&lt;/div&gt;&lt;div&gt;3. Exit&lt;/div&gt;&lt;/div&gt;" style="shape=parallelogram;perimeter=parallelogramPerimeter;whiteSpace=wrap;html=1;fixedSize=1;size=20;" vertex="1" parent="1">
          <mxGeometry x="430" y="410" width="140" height="80" as="geometry" />
        </mxCell>
        <mxCell id="DjC6tdoRYYn5e1TVaNs1-4" value="" style="endArrow=classic;html=1;rounded=0;" edge="1" parent="1">
          <mxGeometry width="50" height="50" relative="1" as="geometry">
            <mxPoint x="499.33" y="490" as="sourcePoint" />
            <mxPoint x="499.83" y="570" as="targetPoint" />
          </mxGeometry>
        </mxCell>
        <mxCell id="DjC6tdoRYYn5e1TVaNs1-5" value="Input Opsi" style="shape=parallelogram;perimeter=parallelogramPerimeter;whiteSpace=wrap;html=1;fixedSize=1;" vertex="1" parent="1">
          <mxGeometry x="440" y="570" width="120" height="60" as="geometry" />
        </mxCell>
        <mxCell id="DjC6tdoRYYn5e1TVaNs1-6" value="" style="endArrow=classic;html=1;rounded=0;" edge="1" parent="1">
          <mxGeometry width="50" height="50" relative="1" as="geometry">
            <mxPoint x="500.33" y="630" as="sourcePoint" />
            <mxPoint x="500.33" y="690" as="targetPoint" />
          </mxGeometry>
        </mxCell>
        <mxCell id="DjC6tdoRYYn5e1TVaNs1-7" value="Opsi = 1" style="rhombus;whiteSpace=wrap;html=1;" vertex="1" parent="1">
          <mxGeometry x="461" y="690" width="80" height="80" as="geometry" />
        </mxCell>
        <mxCell id="DjC6tdoRYYn5e1TVaNs1-8" value="" style="endArrow=classic;html=1;rounded=0;" edge="1" parent="1">
          <mxGeometry width="50" height="50" relative="1" as="geometry">
            <mxPoint x="500.33" y="770" as="sourcePoint" />
            <mxPoint x="500.33" y="810" as="targetPoint" />
          </mxGeometry>
        </mxCell>
        <mxCell id="DjC6tdoRYYn5e1TVaNs1-9" value="Input :&lt;div&gt;Username&lt;/div&gt;&lt;div&gt;Password&lt;/div&gt;&lt;div&gt;Role&lt;/div&gt;" style="shape=parallelogram;perimeter=parallelogramPerimeter;whiteSpace=wrap;html=1;fixedSize=1;" vertex="1" parent="1">
          <mxGeometry x="441" y="810" width="120" height="60" as="geometry" />
        </mxCell>
        <mxCell id="DjC6tdoRYYn5e1TVaNs1-10" value="" style="endArrow=none;html=1;rounded=0;" edge="1" parent="1">
          <mxGeometry width="50" height="50" relative="1" as="geometry">
            <mxPoint x="500.33" y="930" as="sourcePoint" />
            <mxPoint x="500.33" y="870" as="targetPoint" />
          </mxGeometry>
        </mxCell>
        <mxCell id="DjC6tdoRYYn5e1TVaNs1-11" value="" style="endArrow=none;html=1;rounded=0;" edge="1" parent="1">
          <mxGeometry width="50" height="50" relative="1" as="geometry">
            <mxPoint x="401" y="930" as="sourcePoint" />
            <mxPoint x="501" y="930" as="targetPoint" />
          </mxGeometry>
        </mxCell>
        <mxCell id="DjC6tdoRYYn5e1TVaNs1-12" style="edgeStyle=orthogonalEdgeStyle;rounded=0;orthogonalLoop=1;jettySize=auto;html=1;exitX=0.5;exitY=1;exitDx=0;exitDy=0;" edge="1" parent="1" source="DjC6tdoRYYn5e1TVaNs1-1" target="DjC6tdoRYYn5e1TVaNs1-1">
          <mxGeometry relative="1" as="geometry" />
        </mxCell>
        <mxCell id="DjC6tdoRYYn5e1TVaNs1-13" value="" style="endArrow=none;html=1;rounded=0;" edge="1" parent="1">
          <mxGeometry width="50" height="50" relative="1" as="geometry">
            <mxPoint x="400" y="930" as="sourcePoint" />
            <mxPoint x="400" y="450" as="targetPoint" />
          </mxGeometry>
        </mxCell>
        <mxCell id="DjC6tdoRYYn5e1TVaNs1-14" value="" style="endArrow=classic;html=1;rounded=0;" edge="1" parent="1" target="DjC6tdoRYYn5e1TVaNs1-3">
          <mxGeometry width="50" height="50" relative="1" as="geometry">
            <mxPoint x="400" y="450" as="sourcePoint" />
            <mxPoint x="450" y="400" as="targetPoint" />
          </mxGeometry>
        </mxCell>
        <mxCell id="DjC6tdoRYYn5e1TVaNs1-15" value="False" style="text;html=1;align=center;verticalAlign=middle;resizable=0;points=[];autosize=1;strokeColor=none;fillColor=none;" vertex="1" parent="1">
          <mxGeometry x="586" y="708" width="50" height="30" as="geometry" />
        </mxCell>
        <mxCell id="DjC6tdoRYYn5e1TVaNs1-16" value="" style="endArrow=none;html=1;rounded=0;" edge="1" parent="1">
          <mxGeometry width="50" height="50" relative="1" as="geometry">
            <mxPoint x="541" y="730" as="sourcePoint" />
            <mxPoint x="701" y="730" as="targetPoint" />
          </mxGeometry>
        </mxCell>
        <mxCell id="DjC6tdoRYYn5e1TVaNs1-17" value="" style="endArrow=classic;html=1;rounded=0;" edge="1" parent="1">
          <mxGeometry width="50" height="50" relative="1" as="geometry">
            <mxPoint x="701" y="730" as="sourcePoint" />
            <mxPoint x="701" y="770" as="targetPoint" />
          </mxGeometry>
        </mxCell>
        <mxCell id="DjC6tdoRYYn5e1TVaNs1-18" style="edgeStyle=orthogonalEdgeStyle;rounded=0;orthogonalLoop=1;jettySize=auto;html=1;exitX=1;exitY=0.5;exitDx=0;exitDy=0;entryX=0.5;entryY=0;entryDx=0;entryDy=0;" edge="1" parent="1" source="DjC6tdoRYYn5e1TVaNs1-19" target="DjC6tdoRYYn5e1TVaNs1-101">
          <mxGeometry relative="1" as="geometry" />
        </mxCell>
        <mxCell id="DjC6tdoRYYn5e1TVaNs1-19" value="Opsi = 2" style="rhombus;whiteSpace=wrap;html=1;" vertex="1" parent="1">
          <mxGeometry x="661" y="770" width="80" height="80" as="geometry" />
        </mxCell>
        <mxCell id="DjC6tdoRYYn5e1TVaNs1-20" value="" style="endArrow=classic;html=1;rounded=0;" edge="1" parent="1">
          <mxGeometry width="50" height="50" relative="1" as="geometry">
            <mxPoint x="701" y="850" as="sourcePoint" />
            <mxPoint x="701" y="890" as="targetPoint" />
          </mxGeometry>
        </mxCell>
        <mxCell id="DjC6tdoRYYn5e1TVaNs1-21" value="Input :&lt;div&gt;Username&lt;/div&gt;&lt;div&gt;Password&lt;/div&gt;" style="shape=parallelogram;perimeter=parallelogramPerimeter;whiteSpace=wrap;html=1;fixedSize=1;" vertex="1" parent="1">
          <mxGeometry x="636" y="890" width="120" height="60" as="geometry" />
        </mxCell>
        <mxCell id="DjC6tdoRYYn5e1TVaNs1-22" value="" style="endArrow=classic;html=1;rounded=0;" edge="1" parent="1">
          <mxGeometry width="50" height="50" relative="1" as="geometry">
            <mxPoint x="701" y="950" as="sourcePoint" />
            <mxPoint x="701" y="1010" as="targetPoint" />
          </mxGeometry>
        </mxCell>
        <mxCell id="DjC6tdoRYYn5e1TVaNs1-23" value="Username&lt;div&gt;dan&lt;/div&gt;&lt;div&gt;Password&lt;/div&gt;" style="rhombus;whiteSpace=wrap;html=1;" vertex="1" parent="1">
          <mxGeometry x="645" y="1010" width="110" height="120" as="geometry" />
        </mxCell>
        <mxCell id="DjC6tdoRYYn5e1TVaNs1-24" value="" style="endArrow=classic;html=1;rounded=0;" edge="1" parent="1">
          <mxGeometry width="50" height="50" relative="1" as="geometry">
            <mxPoint x="700" y="1130" as="sourcePoint" />
            <mxPoint x="700" y="1210" as="targetPoint" />
          </mxGeometry>
        </mxCell>
        <mxCell id="DjC6tdoRYYn5e1TVaNs1-25" value="" style="endArrow=none;html=1;rounded=0;" edge="1" parent="1">
          <mxGeometry width="50" height="50" relative="1" as="geometry">
            <mxPoint x="401" y="1070" as="sourcePoint" />
            <mxPoint x="401" y="930" as="targetPoint" />
          </mxGeometry>
        </mxCell>
        <mxCell id="DjC6tdoRYYn5e1TVaNs1-26" value="" style="endArrow=none;html=1;rounded=0;" edge="1" parent="1">
          <mxGeometry width="50" height="50" relative="1" as="geometry">
            <mxPoint x="401" y="1070" as="sourcePoint" />
            <mxPoint x="646" y="1070" as="targetPoint" />
          </mxGeometry>
        </mxCell>
        <mxCell id="DjC6tdoRYYn5e1TVaNs1-27" value="Admin?" style="rhombus;whiteSpace=wrap;html=1;" vertex="1" parent="1">
          <mxGeometry x="660" y="1210" width="80" height="80" as="geometry" />
        </mxCell>
        <mxCell id="DjC6tdoRYYn5e1TVaNs1-28" value="" style="endArrow=classic;html=1;rounded=0;" edge="1" parent="1">
          <mxGeometry width="50" height="50" relative="1" as="geometry">
            <mxPoint x="700" y="1290" as="sourcePoint" />
            <mxPoint x="700" y="1370" as="targetPoint" />
          </mxGeometry>
        </mxCell>
        <mxCell id="DjC6tdoRYYn5e1TVaNs1-29" value="Output :&lt;div&gt;mau ngapain&lt;/div&gt;&lt;div&gt;1. reservasi meja&lt;/div&gt;&lt;div&gt;2. Nak tengok reservasi&lt;/div&gt;&lt;div&gt;3. nak edit reservasi&lt;/div&gt;&lt;div&gt;4. nak hapus reservasi&lt;/div&gt;&lt;div&gt;5. KELUAR!&lt;/div&gt;" style="shape=parallelogram;perimeter=parallelogramPerimeter;whiteSpace=wrap;html=1;fixedSize=1;" vertex="1" parent="1">
          <mxGeometry x="590" y="1370" width="220" height="110" as="geometry" />
        </mxCell>
        <mxCell id="DjC6tdoRYYn5e1TVaNs1-30" value="" style="endArrow=classic;html=1;rounded=0;" edge="1" parent="1">
          <mxGeometry width="50" height="50" relative="1" as="geometry">
            <mxPoint x="700" y="1480" as="sourcePoint" />
            <mxPoint x="700" y="1530" as="targetPoint" />
          </mxGeometry>
        </mxCell>
        <mxCell id="DjC6tdoRYYn5e1TVaNs1-31" value="&lt;div&gt;Input :&lt;/div&gt;Opsi Admin" style="shape=parallelogram;perimeter=parallelogramPerimeter;whiteSpace=wrap;html=1;fixedSize=1;" vertex="1" parent="1">
          <mxGeometry x="635" y="1530" width="130" height="40" as="geometry" />
        </mxCell>
        <mxCell id="DjC6tdoRYYn5e1TVaNs1-32" value="" style="endArrow=classic;html=1;rounded=0;" edge="1" parent="1">
          <mxGeometry width="50" height="50" relative="1" as="geometry">
            <mxPoint x="700" y="1570" as="sourcePoint" />
            <mxPoint x="700" y="1610" as="targetPoint" />
          </mxGeometry>
        </mxCell>
        <mxCell id="DjC6tdoRYYn5e1TVaNs1-33" value="Opsi = 1" style="rhombus;whiteSpace=wrap;html=1;" vertex="1" parent="1">
          <mxGeometry x="661" y="1611" width="80" height="80" as="geometry" />
        </mxCell>
        <mxCell id="DjC6tdoRYYn5e1TVaNs1-34" value="" style="endArrow=classic;html=1;rounded=0;" edge="1" parent="1">
          <mxGeometry width="50" height="50" relative="1" as="geometry">
            <mxPoint x="700.89" y="1690" as="sourcePoint" />
            <mxPoint x="700" y="1730" as="targetPoint" />
          </mxGeometry>
        </mxCell>
        <mxCell id="DjC6tdoRYYn5e1TVaNs1-35" value="" style="endArrow=none;html=1;rounded=0;" edge="1" parent="1">
          <mxGeometry width="50" height="50" relative="1" as="geometry">
            <mxPoint x="510" y="1860" as="sourcePoint" />
            <mxPoint x="510" y="1420" as="targetPoint" />
          </mxGeometry>
        </mxCell>
        <mxCell id="DjC6tdoRYYn5e1TVaNs1-36" value="" style="endArrow=classic;html=1;rounded=0;entryX=0.045;entryY=0.45;entryDx=0;entryDy=0;entryPerimeter=0;" edge="1" parent="1" target="DjC6tdoRYYn5e1TVaNs1-29">
          <mxGeometry width="50" height="50" relative="1" as="geometry">
            <mxPoint x="510" y="1420" as="sourcePoint" />
            <mxPoint x="560" y="1380" as="targetPoint" />
            <Array as="points">
              <mxPoint x="550" y="1420" />
            </Array>
          </mxGeometry>
        </mxCell>
        <mxCell id="DjC6tdoRYYn5e1TVaNs1-37" value="" style="endArrow=none;html=1;rounded=0;" edge="1" parent="1">
          <mxGeometry width="50" height="50" relative="1" as="geometry">
            <mxPoint x="740" y="1650" as="sourcePoint" />
            <mxPoint x="940" y="1650" as="targetPoint" />
          </mxGeometry>
        </mxCell>
        <mxCell id="DjC6tdoRYYn5e1TVaNs1-38" value="" style="endArrow=classic;html=1;rounded=0;" edge="1" parent="1">
          <mxGeometry width="50" height="50" relative="1" as="geometry">
            <mxPoint x="940" y="1650" as="sourcePoint" />
            <mxPoint x="940" y="1690" as="targetPoint" />
          </mxGeometry>
        </mxCell>
        <mxCell id="DjC6tdoRYYn5e1TVaNs1-39" value="Opsi = 2" style="rhombus;whiteSpace=wrap;html=1;" vertex="1" parent="1">
          <mxGeometry x="900" y="1690" width="80" height="80" as="geometry" />
        </mxCell>
        <mxCell id="DjC6tdoRYYn5e1TVaNs1-40" value="" style="endArrow=classic;html=1;rounded=0;" edge="1" parent="1">
          <mxGeometry width="50" height="50" relative="1" as="geometry">
            <mxPoint x="940" y="1770" as="sourcePoint" />
            <mxPoint x="940" y="1850" as="targetPoint" />
          </mxGeometry>
        </mxCell>
        <mxCell id="DjC6tdoRYYn5e1TVaNs1-41" value="Input :&lt;div&gt;&lt;br&gt;&lt;/div&gt;&lt;div&gt;Status Bayar&lt;/div&gt;" style="shape=parallelogram;perimeter=parallelogramPerimeter;whiteSpace=wrap;html=1;fixedSize=1;" vertex="1" parent="1">
          <mxGeometry x="870" y="1850" width="140" height="70" as="geometry" />
        </mxCell>
        <mxCell id="DjC6tdoRYYn5e1TVaNs1-42" value="Hasil Input masuk ke data" style="rounded=1;whiteSpace=wrap;html=1;" vertex="1" parent="1">
          <mxGeometry x="640" y="1870" width="120" height="60" as="geometry" />
        </mxCell>
        <mxCell id="DjC6tdoRYYn5e1TVaNs1-43" value="" style="endArrow=none;html=1;rounded=0;exitX=0.5;exitY=1;exitDx=0;exitDy=0;" edge="1" parent="1" source="DjC6tdoRYYn5e1TVaNs1-81">
          <mxGeometry width="50" height="50" relative="1" as="geometry">
            <mxPoint x="939.76" y="2010" as="sourcePoint" />
            <mxPoint x="940" y="2050" as="targetPoint" />
          </mxGeometry>
        </mxCell>
        <mxCell id="DjC6tdoRYYn5e1TVaNs1-44" value="" style="endArrow=none;html=1;rounded=0;" edge="1" parent="1">
          <mxGeometry width="50" height="50" relative="1" as="geometry">
            <mxPoint x="510" y="2050" as="sourcePoint" />
            <mxPoint x="940" y="2050" as="targetPoint" />
          </mxGeometry>
        </mxCell>
        <mxCell id="DjC6tdoRYYn5e1TVaNs1-45" value="" style="endArrow=none;html=1;rounded=0;" edge="1" parent="1">
          <mxGeometry width="50" height="50" relative="1" as="geometry">
            <mxPoint x="510" y="2050" as="sourcePoint" />
            <mxPoint x="510" y="1860" as="targetPoint" />
          </mxGeometry>
        </mxCell>
        <mxCell id="DjC6tdoRYYn5e1TVaNs1-46" value="" style="endArrow=none;html=1;rounded=0;" edge="1" parent="1">
          <mxGeometry width="50" height="50" relative="1" as="geometry">
            <mxPoint x="980" y="1730" as="sourcePoint" />
            <mxPoint x="1140" y="1730" as="targetPoint" />
          </mxGeometry>
        </mxCell>
        <mxCell id="DjC6tdoRYYn5e1TVaNs1-47" value="" style="endArrow=classic;html=1;rounded=0;" edge="1" parent="1">
          <mxGeometry width="50" height="50" relative="1" as="geometry">
            <mxPoint x="1140" y="1730" as="sourcePoint" />
            <mxPoint x="1140" y="1770" as="targetPoint" />
          </mxGeometry>
        </mxCell>
        <mxCell id="DjC6tdoRYYn5e1TVaNs1-48" style="edgeStyle=orthogonalEdgeStyle;rounded=0;orthogonalLoop=1;jettySize=auto;html=1;" edge="1" parent="1" source="DjC6tdoRYYn5e1TVaNs1-49">
          <mxGeometry relative="1" as="geometry">
            <mxPoint x="1139.9999999999998" y="1930" as="targetPoint" />
          </mxGeometry>
        </mxCell>
        <mxCell id="DjC6tdoRYYn5e1TVaNs1-49" value="Opsi = 3" style="rhombus;whiteSpace=wrap;html=1;" vertex="1" parent="1">
          <mxGeometry x="1100" y="1770" width="80" height="80" as="geometry" />
        </mxCell>
        <mxCell id="DjC6tdoRYYn5e1TVaNs1-50" value="Input :&lt;div&gt;&lt;div&gt;Nama reservasi =&lt;/div&gt;&lt;div&gt;hari reservasi =&lt;/div&gt;&lt;/div&gt;" style="shape=parallelogram;perimeter=parallelogramPerimeter;whiteSpace=wrap;html=1;fixedSize=1;" vertex="1" parent="1">
          <mxGeometry x="1070" y="2022" width="140" height="70" as="geometry" />
        </mxCell>
        <mxCell id="DjC6tdoRYYn5e1TVaNs1-51" value="" style="endArrow=classic;html=1;rounded=0;" edge="1" parent="1">
          <mxGeometry width="50" height="50" relative="1" as="geometry">
            <mxPoint x="1140" y="2092" as="sourcePoint" />
            <mxPoint x="1140" y="2122" as="targetPoint" />
          </mxGeometry>
        </mxCell>
        <mxCell id="DjC6tdoRYYn5e1TVaNs1-52" value="Update data sesuai dengan input" style="rounded=1;whiteSpace=wrap;html=1;" vertex="1" parent="1">
          <mxGeometry x="1080" y="2122" width="120" height="60" as="geometry" />
        </mxCell>
        <mxCell id="DjC6tdoRYYn5e1TVaNs1-53" value="Input :&lt;div style=&quot;font-size: 9px;&quot;&gt;Data yang mau di edit&lt;/div&gt;" style="shape=parallelogram;perimeter=parallelogramPerimeter;whiteSpace=wrap;html=1;fixedSize=1;" vertex="1" parent="1">
          <mxGeometry x="1080" y="1930" width="120" height="60" as="geometry" />
        </mxCell>
        <mxCell id="DjC6tdoRYYn5e1TVaNs1-54" value="" style="endArrow=classic;html=1;rounded=0;entryX=0.5;entryY=0;entryDx=0;entryDy=0;" edge="1" parent="1" target="DjC6tdoRYYn5e1TVaNs1-50">
          <mxGeometry width="50" height="50" relative="1" as="geometry">
            <mxPoint x="1140" y="1990" as="sourcePoint" />
            <mxPoint x="1140" y="2020" as="targetPoint" />
          </mxGeometry>
        </mxCell>
        <mxCell id="DjC6tdoRYYn5e1TVaNs1-55" value="" style="endArrow=none;html=1;rounded=0;" edge="1" parent="1">
          <mxGeometry width="50" height="50" relative="1" as="geometry">
            <mxPoint x="1139.67" y="2182" as="sourcePoint" />
            <mxPoint x="1140" y="2220" as="targetPoint" />
          </mxGeometry>
        </mxCell>
        <mxCell id="DjC6tdoRYYn5e1TVaNs1-56" value="" style="endArrow=none;html=1;rounded=0;" edge="1" parent="1">
          <mxGeometry width="50" height="50" relative="1" as="geometry">
            <mxPoint x="510" y="2220" as="sourcePoint" />
            <mxPoint x="1140" y="2220" as="targetPoint" />
          </mxGeometry>
        </mxCell>
        <mxCell id="DjC6tdoRYYn5e1TVaNs1-57" value="" style="endArrow=none;html=1;rounded=0;" edge="1" parent="1">
          <mxGeometry width="50" height="50" relative="1" as="geometry">
            <mxPoint x="510" y="2220" as="sourcePoint" />
            <mxPoint x="510" y="2050" as="targetPoint" />
          </mxGeometry>
        </mxCell>
        <mxCell id="DjC6tdoRYYn5e1TVaNs1-58" value="" style="endArrow=none;html=1;rounded=0;" edge="1" parent="1">
          <mxGeometry width="50" height="50" relative="1" as="geometry">
            <mxPoint x="1180" y="1810" as="sourcePoint" />
            <mxPoint x="1420" y="1810" as="targetPoint" />
          </mxGeometry>
        </mxCell>
        <mxCell id="DjC6tdoRYYn5e1TVaNs1-59" value="" style="endArrow=classic;html=1;rounded=0;entryX=0.5;entryY=0;entryDx=0;entryDy=0;" edge="1" parent="1" target="DjC6tdoRYYn5e1TVaNs1-60">
          <mxGeometry width="50" height="50" relative="1" as="geometry">
            <mxPoint x="1420" y="1810" as="sourcePoint" />
            <mxPoint x="1420" y="1830" as="targetPoint" />
          </mxGeometry>
        </mxCell>
        <mxCell id="DjC6tdoRYYn5e1TVaNs1-60" value="Opsi = 4" style="rhombus;whiteSpace=wrap;html=1;" vertex="1" parent="1">
          <mxGeometry x="1380" y="1840" width="80" height="80" as="geometry" />
        </mxCell>
        <mxCell id="DjC6tdoRYYn5e1TVaNs1-61" value="" style="endArrow=classic;html=1;rounded=0;" edge="1" parent="1">
          <mxGeometry width="50" height="50" relative="1" as="geometry">
            <mxPoint x="1419.55" y="1920" as="sourcePoint" />
            <mxPoint x="1420" y="2000" as="targetPoint" />
          </mxGeometry>
        </mxCell>
        <mxCell id="DjC6tdoRYYn5e1TVaNs1-62" value="Input :&lt;div&gt;Pilih data yang mau dihapus&lt;/div&gt;" style="shape=parallelogram;perimeter=parallelogramPerimeter;whiteSpace=wrap;html=1;fixedSize=1;" vertex="1" parent="1">
          <mxGeometry x="1345" y="2000" width="150" height="70" as="geometry" />
        </mxCell>
        <mxCell id="DjC6tdoRYYn5e1TVaNs1-63" value="" style="endArrow=classic;html=1;rounded=0;" edge="1" parent="1">
          <mxGeometry width="50" height="50" relative="1" as="geometry">
            <mxPoint x="1420" y="2070" as="sourcePoint" />
            <mxPoint x="1420" y="2130" as="targetPoint" />
          </mxGeometry>
        </mxCell>
        <mxCell id="DjC6tdoRYYn5e1TVaNs1-64" value="Hapus data yang dipilih" style="rounded=1;whiteSpace=wrap;html=1;" vertex="1" parent="1">
          <mxGeometry x="1360" y="2130" width="120" height="60" as="geometry" />
        </mxCell>
        <mxCell id="DjC6tdoRYYn5e1TVaNs1-65" value="" style="endArrow=none;html=1;rounded=0;" edge="1" parent="1">
          <mxGeometry width="50" height="50" relative="1" as="geometry">
            <mxPoint x="790" y="2220" as="sourcePoint" />
            <mxPoint x="1420" y="2220" as="targetPoint" />
          </mxGeometry>
        </mxCell>
        <mxCell id="DjC6tdoRYYn5e1TVaNs1-66" value="" style="endArrow=none;html=1;rounded=0;" edge="1" parent="1">
          <mxGeometry width="50" height="50" relative="1" as="geometry">
            <mxPoint x="1420" y="2190" as="sourcePoint" />
            <mxPoint x="1420.16" y="2220" as="targetPoint" />
          </mxGeometry>
        </mxCell>
        <mxCell id="DjC6tdoRYYn5e1TVaNs1-67" value="" style="endArrow=none;html=1;rounded=0;" edge="1" parent="1">
          <mxGeometry width="50" height="50" relative="1" as="geometry">
            <mxPoint x="1460" y="1880" as="sourcePoint" />
            <mxPoint x="1660" y="1880" as="targetPoint" />
          </mxGeometry>
        </mxCell>
        <mxCell id="DjC6tdoRYYn5e1TVaNs1-68" value="" style="endArrow=classic;html=1;rounded=0;" edge="1" parent="1">
          <mxGeometry width="50" height="50" relative="1" as="geometry">
            <mxPoint x="1660" y="1880" as="sourcePoint" />
            <mxPoint x="1660" y="1910" as="targetPoint" />
          </mxGeometry>
        </mxCell>
        <mxCell id="DjC6tdoRYYn5e1TVaNs1-69" value="Opsi = 5" style="rhombus;whiteSpace=wrap;html=1;" vertex="1" parent="1">
          <mxGeometry x="1620" y="1910" width="80" height="80" as="geometry" />
        </mxCell>
        <mxCell id="DjC6tdoRYYn5e1TVaNs1-70" value="" style="endArrow=none;html=1;rounded=0;" edge="1" parent="1">
          <mxGeometry width="50" height="50" relative="1" as="geometry">
            <mxPoint x="1660" y="2130" as="sourcePoint" />
            <mxPoint x="1660" y="1990" as="targetPoint" />
          </mxGeometry>
        </mxCell>
        <mxCell id="DjC6tdoRYYn5e1TVaNs1-71" value="" style="endArrow=none;html=1;rounded=0;" edge="1" parent="1">
          <mxGeometry width="50" height="50" relative="1" as="geometry">
            <mxPoint x="1700" y="1950" as="sourcePoint" />
            <mxPoint x="1820" y="1950" as="targetPoint" />
          </mxGeometry>
        </mxCell>
        <mxCell id="DjC6tdoRYYn5e1TVaNs1-72" value="" style="endArrow=classic;html=1;rounded=0;" edge="1" parent="1">
          <mxGeometry width="50" height="50" relative="1" as="geometry">
            <mxPoint x="1820" y="1950" as="sourcePoint" />
            <mxPoint x="1820" y="1970" as="targetPoint" />
          </mxGeometry>
        </mxCell>
        <mxCell id="DjC6tdoRYYn5e1TVaNs1-73" value="Output :&lt;div&gt;Menu tidak valid&lt;/div&gt;" style="shape=parallelogram;perimeter=parallelogramPerimeter;whiteSpace=wrap;html=1;fixedSize=1;" vertex="1" parent="1">
          <mxGeometry x="1750" y="1972" width="130" height="50" as="geometry" />
        </mxCell>
        <mxCell id="DjC6tdoRYYn5e1TVaNs1-74" value="" style="endArrow=none;html=1;rounded=0;" edge="1" parent="1">
          <mxGeometry width="50" height="50" relative="1" as="geometry">
            <mxPoint x="1820" y="2050" as="sourcePoint" />
            <mxPoint x="1820" y="2022" as="targetPoint" />
          </mxGeometry>
        </mxCell>
        <mxCell id="DjC6tdoRYYn5e1TVaNs1-75" value="" style="endArrow=none;html=1;rounded=0;" edge="1" parent="1">
          <mxGeometry width="50" height="50" relative="1" as="geometry">
            <mxPoint x="1820" y="2050" as="sourcePoint" />
            <mxPoint x="1940" y="2050" as="targetPoint" />
          </mxGeometry>
        </mxCell>
        <mxCell id="DjC6tdoRYYn5e1TVaNs1-76" value="" style="endArrow=none;html=1;rounded=0;" edge="1" parent="1">
          <mxGeometry width="50" height="50" relative="1" as="geometry">
            <mxPoint x="1940" y="2050" as="sourcePoint" />
            <mxPoint x="1940" y="1430" as="targetPoint" />
          </mxGeometry>
        </mxCell>
        <mxCell id="DjC6tdoRYYn5e1TVaNs1-77" value="" style="endArrow=classic;html=1;rounded=0;entryX=1;entryY=0.5;entryDx=0;entryDy=0;" edge="1" parent="1" target="DjC6tdoRYYn5e1TVaNs1-29">
          <mxGeometry width="50" height="50" relative="1" as="geometry">
            <mxPoint x="1940" y="1425" as="sourcePoint" />
            <mxPoint x="2000" y="1360" as="targetPoint" />
          </mxGeometry>
        </mxCell>
        <mxCell id="DjC6tdoRYYn5e1TVaNs1-78" value="" style="endArrow=none;html=1;rounded=0;" edge="1" parent="1">
          <mxGeometry width="50" height="50" relative="1" as="geometry">
            <mxPoint x="1660" y="2130" as="sourcePoint" />
            <mxPoint x="2020" y="2130" as="targetPoint" />
          </mxGeometry>
        </mxCell>
        <mxCell id="DjC6tdoRYYn5e1TVaNs1-79" value="" style="endArrow=none;html=1;rounded=0;" edge="1" parent="1">
          <mxGeometry width="50" height="50" relative="1" as="geometry">
            <mxPoint x="2020" y="2130" as="sourcePoint" />
            <mxPoint x="2020" y="450" as="targetPoint" />
          </mxGeometry>
        </mxCell>
        <mxCell id="DjC6tdoRYYn5e1TVaNs1-80" value="" style="endArrow=classic;html=1;rounded=0;entryX=1;entryY=0.5;entryDx=0;entryDy=0;" edge="1" parent="1" target="DjC6tdoRYYn5e1TVaNs1-3">
          <mxGeometry width="50" height="50" relative="1" as="geometry">
            <mxPoint x="2020" y="450" as="sourcePoint" />
            <mxPoint x="1840" y="410" as="targetPoint" />
          </mxGeometry>
        </mxCell>
        <mxCell id="DjC6tdoRYYn5e1TVaNs1-81" value="&lt;div&gt;Output :&lt;/div&gt;&lt;div&gt;&lt;div&gt;Nama reservasi =&lt;/div&gt;&lt;div&gt;hari reservasi =&lt;/div&gt;&lt;/div&gt;" style="shape=parallelogram;perimeter=parallelogramPerimeter;whiteSpace=wrap;html=1;fixedSize=1;" vertex="1" parent="1">
          <mxGeometry x="870" y="1850" width="140" height="70" as="geometry" />
        </mxCell>
        <mxCell id="DjC6tdoRYYn5e1TVaNs1-82" style="edgeStyle=orthogonalEdgeStyle;rounded=0;orthogonalLoop=1;jettySize=auto;html=1;exitX=0.5;exitY=1;exitDx=0;exitDy=0;entryX=0.5;entryY=0;entryDx=0;entryDy=0;" edge="1" parent="1" source="DjC6tdoRYYn5e1TVaNs1-83" target="DjC6tdoRYYn5e1TVaNs1-42">
          <mxGeometry relative="1" as="geometry" />
        </mxCell>
        <mxCell id="DjC6tdoRYYn5e1TVaNs1-83" value="Input :&lt;div&gt;Nama reservasi =&lt;/div&gt;&lt;div&gt;hari reservasi =&lt;/div&gt;" style="shape=parallelogram;perimeter=parallelogramPerimeter;whiteSpace=wrap;html=1;fixedSize=1;" vertex="1" parent="1">
          <mxGeometry x="630" y="1720" width="140" height="70" as="geometry" />
        </mxCell>
        <mxCell id="DjC6tdoRYYn5e1TVaNs1-84" value="" style="endArrow=none;html=1;rounded=0;entryX=0.5;entryY=1;entryDx=0;entryDy=0;" edge="1" parent="1" target="DjC6tdoRYYn5e1TVaNs1-42">
          <mxGeometry width="50" height="50" relative="1" as="geometry">
            <mxPoint x="510" y="1959.37" as="sourcePoint" />
            <mxPoint x="940" y="1959.37" as="targetPoint" />
            <Array as="points">
              <mxPoint x="700" y="1960" />
            </Array>
          </mxGeometry>
        </mxCell>
        <mxCell id="DjC6tdoRYYn5e1TVaNs1-85" value="" style="endArrow=classic;html=1;rounded=0;exitX=1;exitY=0.5;exitDx=0;exitDy=0;entryX=0;entryY=0.5;entryDx=0;entryDy=0;" edge="1" parent="1" source="DjC6tdoRYYn5e1TVaNs1-27" target="DjC6tdoRYYn5e1TVaNs1-86">
          <mxGeometry width="50" height="50" relative="1" as="geometry">
            <mxPoint x="700" y="1170" as="sourcePoint" />
            <mxPoint x="840" y="1210" as="targetPoint" />
            <Array as="points">
              <mxPoint x="770" y="1250" />
            </Array>
          </mxGeometry>
        </mxCell>
        <mxCell id="DjC6tdoRYYn5e1TVaNs1-86" value="Pengguna?" style="rhombus;whiteSpace=wrap;html=1;" vertex="1" parent="1">
          <mxGeometry x="1250" y="1210" width="80" height="80" as="geometry" />
        </mxCell>
        <mxCell id="DjC6tdoRYYn5e1TVaNs1-87" value="&lt;font style=&quot;font-size: 11px;&quot;&gt;Output :&lt;/font&gt;&lt;div&gt;&lt;span style=&quot;font-size: 11px;&quot;&gt;SYILAHKAN PUH&lt;br&gt;&lt;/span&gt;&lt;div style=&quot;font-size: 11px;&quot;&gt;&lt;span style=&quot;background-color: initial;&quot;&gt;1. Reservasi Meja&lt;/span&gt;&lt;br&gt;&lt;/div&gt;&lt;div style=&quot;font-size: 11px;&quot;&gt;&lt;font style=&quot;font-size: 11px;&quot;&gt;2. Nak tengok reservasi&lt;/font&gt;&lt;/div&gt;&lt;div style=&quot;font-size: 11px;&quot;&gt;&lt;font style=&quot;font-size: 11px;&quot;&gt;5. Exit&lt;/font&gt;&lt;/div&gt;&lt;/div&gt;" style="shape=parallelogram;perimeter=parallelogramPerimeter;whiteSpace=wrap;html=1;fixedSize=1;" vertex="1" parent="1">
          <mxGeometry x="1232.5" y="1440" width="197.5" height="80" as="geometry" />
        </mxCell>
        <mxCell id="DjC6tdoRYYn5e1TVaNs1-88" value="" style="endArrow=classic;html=1;rounded=0;exitX=1;exitY=0.5;exitDx=0;exitDy=0;entryX=0.5;entryY=0;entryDx=0;entryDy=0;" edge="1" parent="1" source="DjC6tdoRYYn5e1TVaNs1-86" target="DjC6tdoRYYn5e1TVaNs1-87">
          <mxGeometry width="50" height="50" relative="1" as="geometry">
            <mxPoint x="870" y="1340" as="sourcePoint" />
            <mxPoint x="920" y="1290" as="targetPoint" />
          </mxGeometry>
        </mxCell>
        <mxCell id="DjC6tdoRYYn5e1TVaNs1-89" value="Opsi = 1" style="rhombus;whiteSpace=wrap;html=1;" vertex="1" parent="1">
          <mxGeometry x="1300" y="1540" width="60" height="50" as="geometry" />
        </mxCell>
        <mxCell id="DjC6tdoRYYn5e1TVaNs1-90" value="" style="endArrow=classic;html=1;rounded=0;exitX=0.5;exitY=1;exitDx=0;exitDy=0;entryX=0.488;entryY=0.079;entryDx=0;entryDy=0;entryPerimeter=0;" edge="1" parent="1" source="DjC6tdoRYYn5e1TVaNs1-87" target="DjC6tdoRYYn5e1TVaNs1-89">
          <mxGeometry width="50" height="50" relative="1" as="geometry">
            <mxPoint x="1180" y="1700" as="sourcePoint" />
            <mxPoint x="1230" y="1650" as="targetPoint" />
          </mxGeometry>
        </mxCell>
        <mxCell id="DjC6tdoRYYn5e1TVaNs1-91" value="&lt;span style=&quot;font-size: 8px;&quot;&gt;Input :&lt;/span&gt;&lt;div&gt;&lt;span style=&quot;font-size: 8px;&quot;&gt;Nama reservasi =&lt;/span&gt;&lt;/div&gt;&lt;div&gt;&lt;span style=&quot;font-size: 8px;&quot;&gt;hari reservasi =&lt;/span&gt;&lt;/div&gt;" style="shape=parallelogram;perimeter=parallelogramPerimeter;whiteSpace=wrap;html=1;fixedSize=1;" vertex="1" parent="1">
          <mxGeometry x="1283.75" y="1611" width="92.5" height="50" as="geometry" />
        </mxCell>
        <mxCell id="DjC6tdoRYYn5e1TVaNs1-92" value="" style="endArrow=classic;html=1;rounded=0;exitX=0.5;exitY=1;exitDx=0;exitDy=0;entryX=0.5;entryY=0;entryDx=0;entryDy=0;" edge="1" parent="1" source="DjC6tdoRYYn5e1TVaNs1-89" target="DjC6tdoRYYn5e1TVaNs1-91">
          <mxGeometry width="50" height="50" relative="1" as="geometry">
            <mxPoint x="1060" y="1830" as="sourcePoint" />
            <mxPoint x="1110" y="1780" as="targetPoint" />
          </mxGeometry>
        </mxCell>
        <mxCell id="DjC6tdoRYYn5e1TVaNs1-93" value="" style="endArrow=classic;html=1;rounded=0;exitX=0.428;exitY=1.048;exitDx=0;exitDy=0;exitPerimeter=0;entryX=0;entryY=0.5;entryDx=0;entryDy=0;" edge="1" parent="1" source="DjC6tdoRYYn5e1TVaNs1-91" target="DjC6tdoRYYn5e1TVaNs1-87">
          <mxGeometry width="50" height="50" relative="1" as="geometry">
            <mxPoint x="1130" y="1830" as="sourcePoint" />
            <mxPoint x="1180" y="1460" as="targetPoint" />
            <Array as="points">
              <mxPoint x="1323" y="1680" />
              <mxPoint x="1180" y="1680" />
              <mxPoint x="1180" y="1480" />
            </Array>
          </mxGeometry>
        </mxCell>
        <mxCell id="DjC6tdoRYYn5e1TVaNs1-94" value="" style="endArrow=classic;html=1;rounded=0;exitX=1;exitY=0.5;exitDx=0;exitDy=0;" edge="1" parent="1" source="DjC6tdoRYYn5e1TVaNs1-89">
          <mxGeometry width="50" height="50" relative="1" as="geometry">
            <mxPoint x="1350" y="1610" as="sourcePoint" />
            <mxPoint x="1460" y="1600" as="targetPoint" />
            <Array as="points">
              <mxPoint x="1460" y="1565" />
            </Array>
          </mxGeometry>
        </mxCell>
        <mxCell id="DjC6tdoRYYn5e1TVaNs1-95" style="edgeStyle=orthogonalEdgeStyle;rounded=0;orthogonalLoop=1;jettySize=auto;html=1;exitX=0.5;exitY=1;exitDx=0;exitDy=0;entryX=0.5;entryY=0;entryDx=0;entryDy=0;" edge="1" parent="1" source="DjC6tdoRYYn5e1TVaNs1-97" target="DjC6tdoRYYn5e1TVaNs1-98">
          <mxGeometry relative="1" as="geometry" />
        </mxCell>
        <mxCell id="DjC6tdoRYYn5e1TVaNs1-96" style="edgeStyle=orthogonalEdgeStyle;rounded=0;orthogonalLoop=1;jettySize=auto;html=1;exitX=1;exitY=0.5;exitDx=0;exitDy=0;" edge="1" parent="1" source="DjC6tdoRYYn5e1TVaNs1-97">
          <mxGeometry relative="1" as="geometry">
            <mxPoint x="1660" y="1880" as="targetPoint" />
          </mxGeometry>
        </mxCell>
        <mxCell id="DjC6tdoRYYn5e1TVaNs1-97" value="Opsi = 2" style="rhombus;whiteSpace=wrap;html=1;" vertex="1" parent="1">
          <mxGeometry x="1430.5" y="1600" width="60" height="50" as="geometry" />
        </mxCell>
        <mxCell id="DjC6tdoRYYn5e1TVaNs1-98" value="&lt;span style=&quot;font-size: 8px;&quot;&gt;Output:&amp;nbsp;&lt;/span&gt;&lt;div&gt;&lt;span style=&quot;background-color: initial; font-size: 8px;&quot;&gt;nama dan hari reservasi yang sudah di inputi&lt;/span&gt;&lt;/div&gt;" style="shape=parallelogram;perimeter=parallelogramPerimeter;whiteSpace=wrap;html=1;fixedSize=1;" vertex="1" parent="1">
          <mxGeometry x="1403" y="1670" width="115.75" height="50" as="geometry" />
        </mxCell>
        <mxCell id="DjC6tdoRYYn5e1TVaNs1-99" value="" style="endArrow=none;html=1;rounded=0;entryX=0;entryY=0.5;entryDx=0;entryDy=0;" edge="1" parent="1" target="DjC6tdoRYYn5e1TVaNs1-98">
          <mxGeometry width="50" height="50" relative="1" as="geometry">
            <mxPoint x="1180" y="1680" as="sourcePoint" />
            <mxPoint x="1440" y="1700" as="targetPoint" />
            <Array as="points">
              <mxPoint x="1180" y="1695" />
            </Array>
          </mxGeometry>
        </mxCell>
        <mxCell id="DjC6tdoRYYn5e1TVaNs1-100" value="" style="edgeStyle=orthogonalEdgeStyle;rounded=0;orthogonalLoop=1;jettySize=auto;html=1;" edge="1" parent="1" source="DjC6tdoRYYn5e1TVaNs1-101" target="DjC6tdoRYYn5e1TVaNs1-102">
          <mxGeometry relative="1" as="geometry" />
        </mxCell>
        <mxCell id="DjC6tdoRYYn5e1TVaNs1-101" value="Opsi = 3" style="rhombus;whiteSpace=wrap;html=1;" vertex="1" parent="1">
          <mxGeometry x="850" y="830" width="80" height="80" as="geometry" />
        </mxCell>
        <mxCell id="DjC6tdoRYYn5e1TVaNs1-102" value="End" style="ellipse;whiteSpace=wrap;html=1;" vertex="1" parent="1">
          <mxGeometry x="835" y="950" width="110" height="80" as="geometry" />
        </mxCell>
      </root>
    </mxGraphModel>
  </diagram>
</mxfile>
